<?xml version="1.0" encoding="UTF-8" standalone="no"?>
<!DOCTYPE svg PUBLIC "-//W3C//DTD SVG 1.1//EN" "http://www.w3.org/Graphics/SVG/1.1/DTD/svg11.dtd">
<svg width="100%" height="100%" viewBox="0 0 162 59" version="1.1" xmlns="http://www.w3.org/2000/svg" xmlns:xlink="http://www.w3.org/1999/xlink" xml:space="preserve" xmlns:serif="http://www.serif.com/" style="fill-rule:evenodd;clip-rule:evenodd;stroke-linejoin:round;stroke-miterlimit:2;">
    <rect id="Artboard1" x="0" y="0" width="161.838" height="58.517" style="fill:none;"/>
    <clipPath id="_clip1">
        <rect id="Artboard11" serif:id="Artboard1" x="0" y="0" width="161.838" height="58.517"/>
    </clipPath>
    <g clip-path="url(#_clip1)">
        <g id="Layer_1-2">
            <g>
                <path d="M69.188,25.067C70.121,23.767 71.379,22.783 72.963,22.117C74.546,21.45 76.371,21.117 78.438,21.117L78.438,28.317C77.571,28.25 76.988,28.217 76.688,28.217C74.454,28.217 72.704,28.842 71.438,30.092C70.171,31.342 69.538,33.217 69.538,35.717L69.538,48.417L61.738,48.417L61.738,21.517L69.188,21.517L69.188,25.067Z" style="fill:white;fill-rule:nonzero;"/>
                <path d="M92.738,48.817C89.704,48.817 87.338,48.008 85.638,46.392C83.938,44.775 83.088,42.483 83.088,39.517L83.088,11.317L90.888,11.317L90.888,39.067C90.888,40.2 91.179,41.075 91.763,41.692C92.346,42.308 93.171,42.617 94.238,42.617C94.638,42.617 95.046,42.567 95.463,42.467C95.879,42.367 96.204,42.25 96.438,42.117L96.788,48.167C95.488,48.6 94.138,48.817 92.738,48.817Z" style="fill:white;fill-rule:nonzero;"/>
                <path d="M127.538,11.317L127.538,48.417L120.088,48.417L120.088,45.317C118.154,47.65 115.354,48.817 111.688,48.817C109.154,48.817 106.863,48.25 104.813,47.117C102.763,45.983 101.154,44.367 99.988,42.267C98.821,40.167 98.238,37.733 98.238,34.967C98.238,32.2 98.821,29.767 99.988,27.667C101.154,25.567 102.763,23.95 104.813,22.817C106.863,21.683 109.154,21.117 111.688,21.117C115.121,21.117 117.804,22.2 119.738,24.367L119.738,11.317L127.538,11.317ZM113.038,42.417C115.004,42.417 116.638,41.742 117.938,40.392C119.238,39.042 119.888,37.233 119.888,34.967C119.888,32.7 119.238,30.892 117.938,29.542C116.638,28.192 115.004,27.517 113.038,27.517C111.038,27.517 109.388,28.192 108.088,29.542C106.788,30.892 106.138,32.7 106.138,34.967C106.138,37.233 106.788,39.042 108.088,40.392C109.388,41.742 111.038,42.417 113.038,42.417Z" style="fill:white;fill-rule:nonzero;"/>
                <path d="M161.838,21.517L161.838,43.917C161.838,48.85 160.588,52.517 158.088,54.917C155.588,57.317 151.954,58.517 147.188,58.517C144.654,58.517 142.263,58.2 140.013,57.567C137.763,56.933 135.871,56.017 134.338,54.817L137.438,49.217C138.571,50.15 139.954,50.883 141.588,51.417C143.221,51.95 144.871,52.217 146.538,52.217C149.138,52.217 151.038,51.617 152.238,50.417C153.438,49.217 154.038,47.383 154.038,44.917L154.038,44.017C153.038,45.017 151.854,45.783 150.488,46.317C149.121,46.85 147.654,47.117 146.088,47.117C142.554,47.117 139.754,46.108 137.688,44.092C135.621,42.075 134.588,39.05 134.588,35.017L134.588,21.517L142.388,21.517L142.388,33.867C142.388,38.233 144.204,40.417 147.838,40.417C149.704,40.417 151.204,39.808 152.338,38.592C153.471,37.375 154.038,35.567 154.038,33.167L154.038,21.517L161.838,21.517Z" style="fill:white;fill-rule:nonzero;"/>
            </g>
            <path d="M36.417,0L19.542,0C8.75,0 0,8.75 0,19.5L0,36.375C0,47.167 8.75,55.875 19.5,55.875L36.375,55.875C47.167,55.875 55.875,47.125 55.875,36.375L55.875,19.5C55.875,8.708 47.125,0 36.375,0L36.417,0ZM48.375,36.5C48.375,43.042 43.083,48.333 36.542,48.333C33.083,48.333 30,46.833 27.833,44.458C25.667,46.833 22.583,48.333 19.125,48.333C12.583,48.333 7.292,43.042 7.292,36.5L7.292,21.625C7.292,21.375 7.5,21.167 7.75,21.167L13.083,21.167C13.333,21.167 13.542,21.375 13.542,21.625L13.542,36.5C13.542,39.583 16.042,42.083 19.125,42.083C22.208,42.083 24.708,39.583 24.708,36.5L24.708,21.625C24.708,21.375 24.917,21.167 25.167,21.167L30.5,21.167C30.75,21.167 30.958,21.375 30.958,21.625L30.958,36.5C30.958,39.583 33.458,42.083 36.542,42.083C39.625,42.083 42.125,39.583 42.125,36.5L42.125,21.625C42.125,21.375 42.333,21.167 42.583,21.167L47.917,21.167C48.167,21.167 48.375,21.375 48.375,21.625L48.375,36.5Z" style="fill:white;fill-rule:nonzero;"/>
        </g>
    </g>
</svg>
